# xmcd
#
# Track frame offsets:
#	150
#	18436
#	42931
#	61462
#	82574
#	104141
#	121104
#	138747
#	158090
#	180097
#	196414
#
# Disc length: 2889 seconds
#
# Revision: 3
# Processed by: cddbd v1.5.1PL0 Copyright (c) Steve Scherf et al.
# Submitted via: dBpowerAMP V4.0
#
DISCID=870b470b
DTITLE=Destiny's Child - Destiny Fulfilled
DYEAR=2004
DGENRE=blues
TTITLE0=Lose My Breath
TTITLE1=Destiny's Child ft. T.I. and Lil Wayne - Soldier
TTITLE2=Cater 2 U
TTITLE3=T-Shirt
TTITLE4=Is She The Reason
TTITLE5=Girl
TTITLE6=Bad Habit
TTITLE7=If
TTITLE8=Free
TTITLE9=Through With Love
TTITLE10=Love
EXTD=Destiny's Child
EXTT0=
EXTT1=
EXTT2=
EXTT3=
EXTT4=
EXTT5=
EXTT6=
EXTT7=
EXTT8=
EXTT9=
EXTT10=
PLAYORDER=
